<svg viewBox="0 0 500 500" xmlns="http://www.w3.org/2000/svg"><g fill="none" fill-rule="evenodd"><circle fill="#d8d8d8" cx="251" cy="250" r="225"/><path d="m135 168.99c0-8.28 6.724-14.992 14.999-14.992h202c8.284 0 14.999 6.715 14.999 14.992v10.201c0 8.28-6.724 14.992-14.999 14.992h-202c-8.284 0-14.999-6.715-14.999-14.992v-10.201m0 75.907c0-8.28 6.724-14.992 14.999-14.992h202c8.284 0 14.999 6.715 14.999 14.992v10.201c0 8.28-6.724 14.992-14.999 14.992h-202c-8.284 0-14.999-6.715-14.999-14.992v-10.201m0 75.907c0-8.28 6.724-14.992 14.999-14.992h202c8.284 0 14.999 6.715 14.999 14.992v10.201c0 8.28-6.724 14.992-14.999 14.992h-202c-8.284 0-14.999-6.715-14.999-14.992v-10.201" fill="#505c6b"/></g></svg>